<svg width="18" height="19" viewBox="0 0 18 19" fill="none" xmlns="http://www.w3.org/2000/svg">
<path d="M2.30391 1.3306L3.43828 2.60656C3.72881 2.58039 4.02087 2.62706 4.29343 2.74319C4.56599 2.85931 4.81225 3.04201 5.01445 3.27812H6.48316C6.52232 3.27758 6.56113 3.28627 6.59712 3.30362C6.63311 3.32096 6.66547 3.34659 6.69213 3.37885L10.8714 8.07976C10.9123 8.1267 10.9401 8.1861 10.9512 8.25062C10.9624 8.31513 10.9565 8.38191 10.9343 8.44269C10.912 8.50347 10.8744 8.55556 10.8261 8.59252C10.7778 8.62948 10.7208 8.64967 10.6624 8.65059C10.6233 8.65113 10.5845 8.64244 10.5485 8.62509C10.5125 8.60774 10.4801 8.58212 10.4535 8.54986L6.34585 3.90267H5.62343L10.3997 9.27514C10.489 9.37819 10.5542 9.50445 10.5897 9.6427C10.6251 9.78095 10.6296 9.92691 10.6027 10.0676L14.782 14.7685C15.1349 15.1714 15.3916 15.668 15.5283 16.2123L16.0357 18.3143H17.7015C17.7807 18.3143 17.8566 18.3497 17.9126 18.4127C17.9685 18.4756 18 18.561 18 18.6501C18 18.7392 17.9685 18.8246 17.9126 18.8875C17.8566 18.9505 17.7807 18.9859 17.7015 18.9859H3.0502C2.97103 18.9859 2.8951 18.9505 2.83912 18.8875C2.78314 18.8246 2.75169 18.7392 2.75169 18.6501C2.75169 18.561 2.78314 18.4756 2.83912 18.4127C2.8951 18.3497 2.97103 18.3143 3.0502 18.3143H13.6058C13.1305 18.1633 12.6971 17.8791 12.3461 17.4883L8.21457 12.8344C8.16821 12.8522 8.12009 12.8634 8.07128 12.868C7.96794 12.8678 7.86566 12.8445 7.77036 12.7995C7.67505 12.7546 7.58861 12.6888 7.51604 12.6061L2.14271 6.56204C1.93368 6.33246 1.7719 6.05415 1.66875 5.74669C1.56561 5.43923 1.5236 5.11009 1.54567 4.78241L0.399363 3.49302C0.272823 3.35192 0.17238 3.18402 0.103834 2.99902C0.0352898 2.81402 0 2.61559 0 2.41517C0 2.21474 0.0352898 2.01631 0.103834 1.83131C0.17238 1.64631 0.272823 1.47841 0.399363 1.33731C0.655149 1.06094 0.995762 0.906043 1.35044 0.904793C1.70511 0.903542 2.04659 1.05604 2.30391 1.3306ZM12.77 17.0115C13.0666 17.335 13.4328 17.5664 13.8327 17.6831L15.3969 18.1464L14.9551 16.4071C14.8475 15.9708 14.6419 15.5731 14.3581 15.252L10.3281 10.719L8.75787 12.4852L12.77 17.0115ZM2.55466 6.08524L7.92799 12.1293C7.94581 12.15 7.96715 12.1665 7.99074 12.1777C8.01433 12.189 8.03969 12.1948 8.06531 12.1948C8.09093 12.1948 8.1163 12.189 8.13989 12.1777C8.16348 12.1665 8.18481 12.15 8.20263 12.1293L9.99374 10.1146C10.0281 10.0725 10.0472 10.0173 10.0472 9.96013C10.0472 9.90292 10.0281 9.8478 9.99374 9.80567L4.69205 3.84894C4.67526 3.83687 4.66099 3.82083 4.65026 3.80193L4.60847 3.75493C4.33437 3.44679 3.96312 3.27299 3.5756 3.2714H3.36663C3.05235 3.31953 2.76075 3.48218 2.53647 3.73446C2.31219 3.98673 2.16758 4.31473 2.1248 4.66825C2.09219 4.92582 2.11413 5.18843 2.18883 5.43466C2.26353 5.6809 2.38888 5.90381 2.55466 6.08524ZM0.823259 3.0095L1.70687 3.99669C1.70801 3.98104 1.70801 3.96532 1.70687 3.94968C1.74269 3.86909 1.78449 3.7885 1.82628 3.70792L1.88598 3.59375C1.95528 3.4832 2.03321 3.37982 2.11883 3.28483C2.20249 3.18496 2.29673 3.097 2.39943 3.02293L2.49496 2.95577C2.5666 2.90876 2.63825 2.86175 2.71586 2.82146H2.75766L1.88001 1.83427C1.7348 1.67983 1.54253 1.59378 1.34268 1.59378C1.14283 1.59378 0.950565 1.67983 0.805347 1.83427C0.673765 1.99536 0.602245 2.20717 0.605579 2.42591C0.608913 2.64464 0.686844 2.85357 0.823259 3.0095Z" fill="#0A614C"/>
</svg>
